# xmcd
#
# Track frame offsets:
#	150
#	14108
#	35844
#	50427
#	64007
#	84093
#	99826
#	119366
#	132750
#	149374
#	165906
#	182899
#	201686
#	220900
#	235567
#
# Disc length: 3372 seconds
#
# Revision: 0
# Processed by: cddbd v1.5.1PL0 Copyright (c) Steve Scherf et al.
# Submitted via: dBpowerAMP V4.0
#
DISCID=d10d2a0f
DTITLE=Vários - Rodrigo
DYEAR=1900
DGENRE=
TTITLE0=Música 1
TTITLE1=Música 2
TTITLE2=Música 3
TTITLE3=Música 4
TTITLE4=Música 5
TTITLE5=Música 6
TTITLE6=Música 7
TTITLE7=Música 8
TTITLE8=Música 9
TTITLE9=Música 10
TTITLE10=Música 11
TTITLE11=Música 12
TTITLE12=Música 13
TTITLE13=Música 14
TTITLE14=Música 15
EXTD=Cd do Rodrigo\n
EXTT0=
EXTT1=
EXTT2=
EXTT3=
EXTT4=
EXTT5=
EXTT6=
EXTT7=
EXTT8=
EXTT9=
EXTT10=
EXTT11=
EXTT12=
EXTT13=
EXTT14=
PLAYORDER=
